<svg width="24" height="24" viewBox="0 0 24 24" fill="none" xmlns="http://www.w3.org/2000/svg">
<path d="M12 1.49976C9.81276 1.50236 7.71586 2.37239 6.16925 3.919C4.62264 5.46561 3.75261 7.56252 3.75 9.74976C3.75 16.8088 11.25 22.1409 11.5693 22.3643C11.6956 22.4525 11.8459 22.4998 12 22.4998C12.1541 22.4998 12.3044 22.4525 12.4307 22.3643C12.75 22.1409 20.25 16.8088 20.25 9.74976C20.2474 7.56252 19.3774 5.46561 17.8308 3.919C16.2841 2.37239 14.1872 1.50236 12 1.49976V1.49976ZM12.0006 6.75004C12.5939 6.75004 13.1739 6.92598 13.6673 7.25563C14.1606 7.58527 14.5451 8.05381 14.7722 8.60199C14.9993 9.15016 15.0587 9.75336 14.9429 10.3353C14.8272 10.9173 14.5414 11.4518 14.1219 11.8714C13.7023 12.2909 13.1678 12.5766 12.5858 12.6924C12.0039 12.8081 11.4007 12.7487 10.8525 12.5217C10.3043 12.2946 9.8358 11.9101 9.50615 11.4167C9.17651 10.9234 9.00056 10.3434 9.00056 9.75004C9.00056 8.95439 9.31663 8.19133 9.87924 7.62872C10.4419 7.06611 11.2049 6.75004 12.0006 6.75004V6.75004Z" fill="black"/>
</svg>
